<svg width="1400" height="900" viewBox="0 0 1400 900" fill="none" xmlns="http://www.w3.org/2000/svg" role="img" aria-labelledby="title desc">
  <title id="title">Mathematical object structure map</title>
  <desc id="desc">A whiteboard-style network diagram linking major families of mathematical objects by invariants, algorithms, and applications.</desc>
  <rect width="1400" height="900" fill="#FFFFFF"/>
  <g opacity="0.55">
    <path d="M0 90H1400M0 180H1400M0 270H1400M0 360H1400M0 450H1400M0 540H1400M0 630H1400M0 720H1400M0 810H1400" stroke="#DBE7F3" stroke-width="1"/>
    <path d="M100 0V900M200 0V900M300 0V900M400 0V900M500 0V900M600 0V900M700 0V900M800 0V900M900 0V900M1000 0V900M1100 0V900M1200 0V900M1300 0V900" stroke="#E7F0F8" stroke-width="1"/>
  </g>
  <g stroke="#0F766E" stroke-width="5" stroke-linecap="round" opacity="0.72">
    <path d="M220 450L405 235L650 300L895 210L1155 385"/>
    <path d="M220 450L405 665L650 555L895 690L1155 385"/>
    <path d="M405 235L405 665"/>
    <path d="M650 300L650 555"/>
    <path d="M895 210L895 690"/>
    <path d="M405 235L895 690"/>
    <path d="M405 665L895 210"/>
    <path d="M650 300L1155 385"/>
  </g>
  <g stroke="#1D4ED8" stroke-width="2" stroke-dasharray="10 12" opacity="0.55">
    <path d="M220 450C405 405 530 410 650 555"/>
    <path d="M650 300C735 390 805 455 895 690"/>
    <path d="M405 665C610 745 840 755 1155 385"/>
  </g>
  <g>
    <circle cx="220" cy="450" r="88" fill="#111827"/>
    <text x="220" y="441" text-anchor="middle" font-family="Inter, Arial, sans-serif" font-size="30" font-weight="800" fill="#FFFFFF">Groups</text>
    <text x="220" y="478" text-anchor="middle" font-family="Inter, Arial, sans-serif" font-size="18" fill="#D7F4F0">symmetry</text>
  </g>
  <g>
    <circle cx="405" cy="235" r="82" fill="#1D4ED8"/>
    <text x="405" y="227" text-anchor="middle" font-family="Inter, Arial, sans-serif" font-size="29" font-weight="800" fill="#FFFFFF">Graphs</text>
    <text x="405" y="263" text-anchor="middle" font-family="Inter, Arial, sans-serif" font-size="18" fill="#DBEAFE">relations</text>
  </g>
  <g>
    <circle cx="650" cy="300" r="86" fill="#B7791F"/>
    <text x="650" y="292" text-anchor="middle" font-family="Inter, Arial, sans-serif" font-size="28" font-weight="800" fill="#FFFFFF">Matrices</text>
    <text x="650" y="328" text-anchor="middle" font-family="Inter, Arial, sans-serif" font-size="18" fill="#FFF7D6">linear maps</text>
  </g>
  <g>
    <circle cx="895" cy="210" r="86" fill="#B4233A"/>
    <text x="895" y="202" text-anchor="middle" font-family="Inter, Arial, sans-serif" font-size="28" font-weight="800" fill="#FFFFFF">Functions</text>
    <text x="895" y="238" text-anchor="middle" font-family="Inter, Arial, sans-serif" font-size="18" fill="#FFE4EA">analysis</text>
  </g>
  <g>
    <circle cx="1155" cy="385" r="92" fill="#0F766E"/>
    <text x="1155" y="377" text-anchor="middle" font-family="Inter, Arial, sans-serif" font-size="27" font-weight="800" fill="#FFFFFF">Algorithms</text>
    <text x="1155" y="414" text-anchor="middle" font-family="Inter, Arial, sans-serif" font-size="18" fill="#D7F4F0">computation</text>
  </g>
  <g>
    <circle cx="405" cy="665" r="86" fill="#6D28D9"/>
    <text x="405" y="657" text-anchor="middle" font-family="Inter, Arial, sans-serif" font-size="27" font-weight="800" fill="#FFFFFF">Probability</text>
    <text x="405" y="693" text-anchor="middle" font-family="Inter, Arial, sans-serif" font-size="18" fill="#EDE9FE">uncertainty</text>
  </g>
  <g>
    <circle cx="650" cy="555" r="86" fill="#15803D"/>
    <text x="650" y="547" text-anchor="middle" font-family="Inter, Arial, sans-serif" font-size="26" font-weight="800" fill="#FFFFFF">Optimization</text>
    <text x="650" y="583" text-anchor="middle" font-family="Inter, Arial, sans-serif" font-size="18" fill="#DCFCE7">constraints</text>
  </g>
  <g>
    <circle cx="895" cy="690" r="86" fill="#1E3A8A"/>
    <text x="895" y="682" text-anchor="middle" font-family="Inter, Arial, sans-serif" font-size="27" font-weight="800" fill="#FFFFFF">Quantum</text>
    <text x="895" y="718" text-anchor="middle" font-family="Inter, Arial, sans-serif" font-size="18" fill="#DBEAFE">states</text>
  </g>
  <g>
    <rect x="70" y="68" width="390" height="104" rx="10" fill="#FFFFFF" stroke="#DBE7F3" stroke-width="2"/>
    <text x="104" y="111" font-family="Inter, Arial, sans-serif" font-size="28" font-weight="850" fill="#111827">OEMO structure map</text>
    <text x="104" y="146" font-family="Inter, Arial, sans-serif" font-size="18" fill="#5B6676">objects linked by invariants, algorithms, and use</text>
  </g>
</svg>
